<svg width="147" height="6" viewBox="0 0 147 6" fill="none" xmlns="http://www.w3.org/2000/svg">
<path d="M49.7988 0.040984C47.7835 0.0464413 40.6379 0.177346 36.061 0.229499C25.4674 0.359208 14.8562 0.637225 4.31882 1.32313C2.67326 1.43019 -0.134168 1.53307 0.00446547 2.52966C0.148136 3.56773 2.05836 4.10864 4.908 3.97011C6.63454 3.88211 8.36103 3.79323 10.0895 3.70519C11.8181 3.62156 13.5487 3.53788 15.2795 3.46305C18.7389 3.30371 22.1984 3.22227 25.6387 3.22899C35.6994 3.27825 45.7417 3.00932 55.7819 3.02638C64.7921 3.04987 73.8093 3.04838 82.7979 3.21852C84.9068 3.26631 87.0141 3.32566 89.1175 3.38865C90.1702 3.42145 91.2229 3.44982 92.2738 3.48887L95.4247 3.60604L101.726 3.83155C103.826 3.91058 105.926 3.98164 108.031 4.0375C109.848 4.08165 111.664 4.12933 113.484 4.16276C115.304 4.19707 117.128 4.22154 118.952 4.24336L124.42 4.33901C126.242 4.37415 128.065 4.40482 129.882 4.46843C131.593 4.52338 133.585 4.80007 135.457 4.8684C137.006 4.91794 139.575 5.04723 141.135 5.03719C141.808 5.03327 142.508 5.02065 143.142 5.09038C146.047 5.41068 146.964 5.09035 146.385 3.90199C146.256 3.64076 146.63 3.32619 145.969 3.11821C145.942 3.10922 145.888 3.09206 145.864 3.08208C143.924 2.28085 141.557 2.48609 139.3 2.3555C128.202 1.73746 117.032 1.30283 105.843 0.958998C104.126 0.907741 102.41 0.852945 100.689 0.812408L95.5289 0.692568C92.0922 0.599005 88.6522 0.532971 85.2264 0.406362C83.3523 0.333666 81.4894 0.167719 79.5621 0.234549L79.5955 0.234538C77.6041 0.179157 75.6176 0.0882343 73.6195 0.0728713C66.0593 0.0378669 58.1654 -0.0731542 50.8928 0.0762132C50.6025 0.0804726 50.2206 0.0367331 49.7988 0.040984Z" fill="#B80908"/>
</svg>
