<svg width="109" height="296" viewBox="0 0 109 296" fill="none" xmlns="http://www.w3.org/2000/svg">
<path d="M68.65 158.224C67.6906 160.828 65.9071 163.274 63.5857 165.177C61.3057 167.129 58.5209 168.543 55.6458 169.349C55.3064 169.444 54.9587 169.495 54.6135 169.579C54.2685 169.649 53.9353 169.742 53.5637 169.776C52.8413 169.869 52.1247 169.973 51.3943 169.993C49.9385 170.1 48.4765 170.021 47.0246 169.874C44.1215 169.525 41.2427 168.77 38.5144 167.635C35.7798 166.516 33.1674 165.093 30.7215 163.434C29.4848 162.622 28.3157 161.721 27.1682 160.788C25.987 159.893 24.9284 158.868 23.8146 157.898C21.7004 155.853 19.6903 153.702 17.8999 151.387C16.1398 149.058 14.4654 146.659 13.0588 144.101C11.6429 141.555 10.3579 138.938 9.31573 136.217L8.91158 135.202L8.55298 134.172C8.31901 133.48 8.06688 132.798 7.84192 132.109C7.43456 130.71 6.98775 129.324 6.6592 127.901C6.51701 127.326 6.38695 126.745 6.28416 126.157L6.01205 124.391L6.04366 124.495C5.35647 121.04 4.89947 117.529 4.68113 113.993C4.48397 110.453 4.52235 106.897 4.77495 103.341C5.26506 96.2299 6.74435 89.1408 9.0437 82.2894C10.3885 78.3272 12.0278 74.4456 13.9699 70.6896L17.0647 65.1035L20.5071 59.6843C25.3114 52.5713 30.9652 45.9408 37.2028 39.8103C49.6993 27.5458 64.4068 17.3067 79.9373 8.51579C81.1337 7.79938 82.5991 7.05689 84.0596 6.23272C85.5289 5.42527 87.002 4.56703 88.3346 3.81918C90.9852 2.29567 92.9124 0.935757 92.502 0.344263C91.6723 -0.855444 85.3828 1.09715 76.7388 5.94908L72.8377 8.17338L68.9923 10.5035L67.071 11.6715L65.1852 12.8921L61.4165 15.3391C56.4813 18.719 51.5933 22.174 46.9839 25.9555C44.6243 27.7855 42.4133 29.7671 40.1576 31.7076L39.311 32.4356L35.2534 36.2353C34.7088 36.739 34.1671 37.2483 33.6613 37.7821C31.5991 39.9014 29.4744 41.9601 27.5553 44.1917C26.5853 45.2951 25.5586 46.3632 24.6245 47.4911L21.84 50.8943C16.4808 57.5913 11.9312 64.8253 8.24737 72.4568C4.65642 80.1342 2.27489 88.2376 1.01102 96.4476C-0.240703 104.652 -0.350883 112.979 0.79668 121.127C1.94131 129.269 4.37967 137.244 8.22426 144.595C11.6821 151.183 16.2819 157.269 22.0259 162.294C24.8813 164.803 27.9597 167.142 31.3763 169.048C34.7745 170.978 38.4709 172.532 42.4391 173.469C44.4265 173.922 46.4705 174.222 48.5566 174.325C50.6463 174.392 52.751 174.27 54.847 173.914C59.1186 173.134 63.0725 171.213 66.3108 168.527C67.9508 167.202 69.3712 165.634 70.5676 163.916C71.1928 163.072 71.6653 162.141 72.1588 161.221L72.7568 159.773C72.9722 159.297 73.0645 158.776 73.2228 158.278C74.3182 154.248 73.6677 149.76 71.1123 146.354C69.9356 144.756 68.4172 143.409 66.7222 142.379C65.0271 141.349 63.1678 140.602 61.2568 140.091C57.4254 139.08 53.3843 138.977 49.4523 139.647C45.5261 140.328 41.6601 141.821 38.3835 144.245C37.9777 144.548 37.5687 144.859 37.1895 145.198L36.6118 145.697L36.0972 146.214C35.426 146.913 34.6951 147.57 34.1105 148.332C33.4929 149.074 32.8634 149.808 32.3445 150.608L31.5273 151.784C31.2739 152.187 31.0474 152.599 30.803 153.006C28.9044 156.278 27.6238 159.781 26.7955 163.303C25.9641 166.832 25.5727 170.386 25.4564 173.91C25.3461 177.432 25.5167 180.935 25.8872 184.383L26.5854 189.514L26.942 192.079C27.0558 192.935 27.2755 193.773 27.4378 194.619C29.6724 206.314 33.6291 217.639 38.9995 228.254C44.3757 238.88 51.1531 248.815 59.0724 257.844C59.538 258.381 60.0035 258.917 60.4721 259.459C60.9284 260.007 61.4273 260.535 61.9354 261.051C62.9425 262.094 63.9464 263.146 64.9352 264.198C66.8516 266.36 68.9187 268.329 70.6922 270.365L70.6116 270.313C73.2144 272.371 75.9646 274.652 78.6506 276.999C79.9629 278.202 81.4502 279.214 82.8711 280.217C84.3074 281.205 85.76 282.108 87.2272 282.85C89.1584 284.024 91.1746 285.17 93.0027 286.38C93.5285 286.727 94.0303 287.056 94.5083 287.37C94.9955 287.672 95.4805 287.925 95.9323 288.175C96.8359 288.673 97.6529 289.108 98.3805 289.475C99.8296 290.211 100.917 290.697 101.662 290.922C103.155 291.378 103.275 290.808 102.248 289.292C101.799 288.628 102.801 288.616 100.824 287.253C100.815 287.251 100.653 287.19 100.653 287.19L100.729 287.202C99.411 286.149 97.9352 285.188 96.4208 284.182C94.9403 283.124 93.3688 282.097 91.7579 281.082C90.9602 280.567 90.1196 280.087 89.3281 279.555C88.5429 279.007 87.7517 278.461 86.9695 277.917C85.4081 276.822 83.813 275.764 82.3455 274.645C68.0898 263.472 55.9945 249.859 47.1966 234.457C44.8884 230.665 43.0149 226.653 41.0835 222.677L38.5206 216.571C38.0651 215.56 37.734 214.51 37.3695 213.469L36.2822 210.342C35.9389 209.297 35.5259 208.266 35.2281 207.206L34.3529 204.018C33.7816 201.887 33.1193 199.786 32.7387 197.61C32.3127 195.45 31.808 193.301 31.4425 191.125L30.5455 184.571C29.8899 179.216 29.7631 173.807 30.4071 168.498C31.0329 163.198 32.6198 157.983 35.5021 153.489C35.8874 152.943 36.2489 152.382 36.6461 151.845L37.9154 150.294C38.8501 149.327 39.7672 148.327 40.7834 147.558C42.8229 145.947 45.3138 144.817 47.9041 144.093C50.5123 143.389 53.2526 143.125 55.9167 143.311C58.5746 143.514 61.1776 144.151 63.3776 145.313C65.7993 146.577 67.6528 148.503 68.5381 150.825L68.8355 151.71L69.0509 152.627L69.1606 153.562L69.2229 154.029C69.2296 154.187 69.2151 154.348 69.2189 154.5L69.2137 155.448L69.0787 156.397L69.0172 156.875L68.8924 157.349L68.6458 158.303C68.6341 158.281 68.6405 158.25 68.65 158.224Z" fill="#E6E6E6"/>
<path d="M104.851 292.324C105.52 292.173 106.273 292.037 106.91 291.838L108.525 291.324C107.286 289.911 105.89 288.434 104.794 287.062C104.726 286.976 104.743 286.849 104.718 286.742L104.736 286.748L103.895 285.672C103.694 285.406 103.502 285.128 103.328 284.842C102.528 283.509 101.809 282.171 100.726 280.941C100.563 280.747 100.388 280.37 98.9673 280.937C97.4831 281.527 96.7436 282.154 96.9938 282.571C97.6003 283.564 98.4412 284.422 98.7564 285.53C98.9946 286.345 99.3968 287.081 99.8569 287.781C99.9719 287.956 100.093 288.129 100.214 288.301L100.513 288.709C100.595 288.822 100.646 288.889 100.669 288.948C100.707 289.048 100.775 289.134 100.852 289.223C100.758 289.276 100.567 289.32 100.41 289.326C100.34 289.325 100.265 289.313 100.208 289.291L100.187 289.281L100.06 289.3L99.7941 289.346L99.2557 289.44C98.5418 289.564 97.8307 289.708 97.1487 289.921C95.9635 290.296 94.8877 291.01 93.7429 291.505C93.4757 291.621 93.1956 291.786 92.7738 291.347L92.7711 291.327C92.6427 292.041 91.9071 291.006 91.8798 292.014C91.7794 292.07 91.6931 292.196 91.5697 292.179C91.0097 292.102 91.0349 292.629 91.6852 294.126C91.8281 294.456 91.9238 294.914 92.1199 295.112L92.1203 295.084L92.126 295.109C92.7845 296.056 93.0353 295.43 93.4077 295.339C95.2488 294.89 97.0701 294.345 98.8969 293.84L100.57 293.346C100.854 293.264 101.112 293.201 101.43 293.123C101.939 292.987 102.462 292.865 103.01 292.745C103.594 292.621 104.385 292.6 104.866 292.323L104.851 292.324Z" fill="#E6E6E6"/>
</svg>
